<svg xmlns="http://www.w3.org/2000/svg" width="520" height="120" viewBox="0 0 520 120" fill="none">
<rect width="520" height="120" rx="22" fill="#07172f"/>
<rect x="1" y="1" width="518" height="118" rx="21" stroke="#1d73c9" stroke-opacity="0.35"/>
<g transform="translate(26 22) scale(1.15)" stroke-linecap="round" stroke-linejoin="round"><rect x="11" y="38" width="42" height="15" rx="4" stroke="#f4f8ff" stroke-width="3"/>
<path d="M18 46h4M26 46h4M34 46h4M43 46h4" stroke="#f4f8ff" stroke-width="2.5"/>
<circle cx="46" cy="45" r="2" fill="#39d5ff"/>
<circle cx="32" cy="25" r="8" stroke="#27a8ff" stroke-width="3"/>
<path d="M25 25h4l3-5 4 10 3-5h4" stroke="#f4f8ff" stroke-width="2.6"/>
<path d="M18 37c0-15 7-25 14-25s14 10 14 25" stroke="#f4f8ff" stroke-width="2.8"/>
<circle cx="18" cy="27" r="4.5" stroke="#27a8ff" stroke-width="3"/>
<circle cx="32" cy="12" r="4.5" fill="#39d5ff"/>
<circle cx="46" cy="27" r="4.5" stroke="#39d5ff" stroke-width="3"/>
<path d="M18 27l14-15 14 15M18 27l14-2 14 2" stroke="#27a8ff" stroke-width="2.2"/></g>
<text x="130" y="58" fill="#f4f8ff" font-family="Segoe UI, Arial, sans-serif" font-size="44" font-weight="800">Switch</text>
<text x="285" y="58" fill="#27a8ff" font-family="Segoe UI, Arial, sans-serif" font-size="44" font-weight="800">Map</text>
<text x="132" y="88" fill="#9bb7d9" font-family="Segoe UI, Arial, sans-serif" font-size="15" letter-spacing="7" font-weight="600">PRODUCTION MONITORING</text>
</svg>