<svg xmlns="http://www.w3.org/2000/svg" width="64" height="64" viewBox="0 0 64 64" fill="none">
  
  <g stroke-linecap="round" stroke-linejoin="round"><path d="M28 8h8l2 7 6 3 7-2 4 7-5 5v8l5 5-4 7-7-2-6 3-2 7h-8l-2-7-6-3-7 2-4-7 5-5v-8l-5-5 4-7 7 2 6-3 2-7Z" stroke="#f4f8ff" stroke-width="2.7"/><circle cx="32" cy="32" r="8" stroke="#27a8ff" stroke-width="3.2"/><path d="M41 37v-5a5 5 0 0 1 10 0v5" stroke="#39d5ff" stroke-width="2.7"/><rect x="38" y="37" width="16" height="13" rx="3" fill="#07172f" stroke="#39d5ff" stroke-width="2.7"/></g>
</svg>